<svg width="432" height="139" viewBox="0 0 432 139" fill="none" xmlns="http://www.w3.org/2000/svg">
<g clip-path="url(#clip0_2903_12970)">
<path d="M83.9811 95.1798L103.301 92.2722L105.671 79.3294L86.3512 82.2499L90.2972 60.2754L118.047 56.0812L120.43 43.1513L77.9724 49.5584L71.7971 83.9996L2.37041 94.1377L0.000244141 107.068L69.4782 96.9295L63.1876 132.001L105.915 125.543L108.285 112.613L80.1247 116.871L83.9811 95.1798Z" fill="#353535"/>
<path d="M176.174 57.6507C173.676 40.9897 157.943 31.6235 130.628 41.6201V41.7488L115.818 124.089L130.129 121.889L134.19 99.7598C137.995 99.359 141.748 98.5613 145.388 97.3796C148.116 104.507 151.588 112.818 154.215 118.261L169.461 115.958C165.259 108.341 161.172 100.583 157.392 92.0662C169.538 84.9257 178.48 73.0894 176.174 57.6507ZM136.355 87.2416L142.761 51.3336C152.588 49.1594 160.019 51.3336 161.389 60.5454C163.196 72.3303 154.369 83.9994 136.355 87.2801V87.2416Z" fill="#353535"/>
<path d="M238.759 48.2074C236.197 31.4821 220.528 22.1674 193.226 32.164V32.3055L178.416 114.645L192.701 112.497L196.762 90.368C200.569 89.9694 204.322 89.1672 207.96 87.975C210.702 95.1025 214.161 103.414 216.787 108.856L232.046 106.45C227.844 98.8464 223.757 91.0756 219.977 82.5714C232.123 75.4696 241.065 63.6461 238.759 48.2074ZM198.94 77.7983L205.346 41.9032C215.173 39.7161 222.604 41.9032 223.974 51.1021C225.781 62.8742 216.954 74.5433 198.94 77.824V77.7983Z" fill="#353535"/>
<path d="M270.507 20.4949L238.567 105.524L254.223 103.156L260.014 86.0709L281.909 82.7644L283.19 98.7821L297.475 96.6207L290.224 17.5101L270.507 20.4949ZM264.421 72.8322L278.002 32.4985L281.025 70.3234L264.421 72.8322Z" fill="#353535"/>
<path d="M358.254 7.24327L347.928 69.2941L335.808 10.6269L320.024 13.0071L305.24 95.4499L318.705 93.4171L328.172 35.8178L339.793 90.2264L356.538 87.7048L371.322 5.26196L358.254 7.24327Z" fill="#353535"/>
<path d="M430.5 25.1137C426.989 1.62115 407.362 -4.92743 384.557 3.551L369.9 84.9903C406.952 88.0523 435.945 61.4205 430.5 25.1137ZM386.479 71.1598L396.728 13.4447C406.503 11.8236 414.139 15.426 415.946 27.3138C419.174 48.9023 406.644 67.4159 386.479 71.1598Z" fill="#353535"/>
<path d="M70.5414 50.15L28.0961 56.57L25.7644 69.59L68.1712 63.08L70.5414 50.15Z" fill="#353535"/>
<path d="M13.3115 139L56.0258 132.554L58.4088 119.612L15.6433 126.07L13.3115 139Z" fill="#353535"/>
</g>
<defs>
<clipPath id="clip0_2903_12970">
<rect width="431.166" height="139" fill="white"/>
</clipPath>
</defs>
</svg>
