<svg width="119" height="198" viewBox="0 0 119 198" fill="none" xmlns="http://www.w3.org/2000/svg">
<g clip-path="url(#clip0_2903_12964)">
<path d="M149.692 123.461C181.686 170.734 160.153 189.434 117.943 152.585C109.012 208.564 79.1591 208.134 73.164 150.684C22.6957 181.34 2.69187 155.528 42.5772 113.896C-11.2557 102.982 -9.54288 77.1079 46.1864 74.2261C14.1925 26.8309 35.9092 8.06884 78.1191 44.9795C87.1116 -10.877 116.842 -10.2021 122.715 47.0033C168.35 14.2007 186.335 34.0045 150.855 76.4947C207.44 84.2815 207.746 116.042 149.692 123.461Z" fill="#E6BF5C"/>
<path d="M149.692 123.461C181.686 170.734 160.153 189.434 117.943 152.585C109.012 208.564 79.1591 208.134 73.164 150.684C22.6957 181.341 2.69187 155.528 42.5772 113.896C-11.2557 102.982 -9.54288 77.1079 46.1864 74.2261C14.1925 26.8309 35.9092 8.06884 78.1191 44.9795C87.1116 -10.877 116.842 -10.2021 122.715 47.0033C168.35 14.2007 186.335 34.0045 150.855 76.4947C207.44 84.2815 207.746 116.042 149.692 123.461Z" stroke="#353535" stroke-width="3.23592" stroke-miterlimit="10"/>
</g>
<defs>
<clipPath id="clip0_2903_12964">
<rect y="0.343994" width="119" height="197" fill="white"/>
</clipPath>
</defs>
</svg>
