<svg width="174" height="271" viewBox="0 0 174 271" fill="none" xmlns="http://www.w3.org/2000/svg">
<g clip-path="url(#clip0_2903_12967)">
<path d="M141.204 75.5819C90.6223 122.712 92.4234 136.768 155.313 165.031C86.2695 163.227 77.9392 175.479 99.9282 241.25C51.2973 191.415 35.2371 192.692 -0.410591 252.149C9.57076 184.048 -0.410622 176.23 -65.402 199.532C-14.8198 152.327 -16.6209 138.196 -79.3608 109.332C-10.392 111.512 -2.06167 99.335 -24.1257 33.639C22.2538 84.7526 35.3121 82.7231 60.0029 18.6056C61.9541 88.3606 75.1624 96.9293 141.204 75.5819Z" fill="#8DE8FD"/>
<path d="M141.204 75.5819C90.6223 122.712 92.4234 136.768 155.313 165.031C86.2695 163.227 77.9392 175.479 99.9282 241.25C51.2973 191.415 35.2371 192.692 -0.410594 252.149C9.57075 184.048 -0.410623 176.231 -65.402 199.532C-14.8198 152.327 -16.6209 138.196 -79.3608 109.332C-10.392 111.512 -2.06167 99.335 -24.1257 33.639C22.2538 84.7526 35.3121 82.7231 60.0029 18.6056C61.9541 88.3606 75.1624 96.9293 141.204 75.5819Z" stroke="#353535" stroke-width="2.61843" stroke-miterlimit="10"/>
</g>
<defs>
<clipPath id="clip0_2903_12967">
<rect width="174" height="270" fill="white" transform="translate(0 0.189209)"/>
</clipPath>
</defs>
</svg>
